<?xml version="1.0" standalone="no"?>
<!DOCTYPE svg PUBLIC "-//W3C//DTD SVG 20010904//EN"
 "http://www.w3.org/TR/2001/REC-SVG-20010904/DTD/svg10.dtd">
<svg version="1.0" xmlns="http://www.w3.org/2000/svg"
 width="424.000000pt" height="351.000000pt" viewBox="0 0 424.000000 351.000000"
 preserveAspectRatio="xMidYMid meet">

<g transform="translate(0.000000,351.000000) scale(0.100000,-0.100000)"
fill="#000000" stroke="none">
<path d="M1068 1970 l-1068 -1539 0 -216 0 -215 278 0 278 0 350 505 349 504
443 1 442 0 0 -505 0 -505 345 0 345 0 2 413 3 414 425 -413 425 -413 278 0
277 -1 0 249 0 248 -615 594 c-338 326 -615 596 -615 601 0 4 277 294 615 644
l615 637 0 268 0 269 -254 0 -255 0 -448 -464 -448 -464 -3 464 -2 464 -348 0
-347 -1 -1067 -1539z m1072 30 l0 -290 -204 0 -205 0 201 290 c111 160 203
290 205 290 2 0 3 -130 3 -290z"/>
</g>
</svg>
